# xmcd
#
# Track frame offsets:
#	187
#	17635
#	31717
#	49362
#
# Disc length: 708 seconds
#
# Revision: 1
# Processed by: cddbd v1.5.1PL0 Copyright (c) Steve Scherf et al.
# Submitted via: CDex 1.50Beta5
#
DISCID=2702c204
DTITLE=内田有紀 - TENCAを取ろう!-内田の野望-
DYEAR=1900
DGENRE=Pop
TTITLE0=TENCAを取ろう!-内田の野望-
TTITLE1=ヘイ・ポーラ (HEY PAULA)
TTITLE2=TENCAを取ろう!-内田の野望-
TTITLE3=内田有紀からのメッセージ
EXTD=
EXTT0=
EXTT1=
EXTT2=
EXTT3=
PLAYORDER=
